<?xml version="1.0" encoding="UTF-8"?>
<svg width="1268px" height="1268px" viewBox="0 0 1268 1268" version="1.1" xmlns="http://www.w3.org/2000/svg" xmlns:xlink="http://www.w3.org/1999/xlink">
    <!-- Generator: Sketch 52.5 (67469) - http://www.bohemiancoding.com/sketch -->
    <title>text-default</title>
    <desc>Created with Sketch.</desc>
    <defs>
        <linearGradient x1="82.7197093%" y1="28.4492658%" x2="29.8365329%" y2="86.0615643%" id="linearGradient-1">
            <stop stop-color="#FAD961" offset="0%"></stop>
            <stop stop-color="#C9F0FF" offset="100%"></stop>
        </linearGradient>
        <linearGradient x1="21.5032765%" y1="89.7684108%" x2="61.9508946%" y2="50%" id="linearGradient-2">
            <stop stop-color="#FAD961" offset="0%"></stop>
            <stop stop-color="#C9F0FF" offset="100%"></stop>
        </linearGradient>
        <linearGradient x1="50%" y1="-25.9822651%" x2="50%" y2="112.508554%" id="linearGradient-3">
            <stop stop-color="#F0FF00" offset="0%"></stop>
            <stop stop-color="#58CFFB" offset="100%"></stop>
        </linearGradient>
    </defs>
    <g id="text-default" stroke="none" stroke-width="1" fill="none" fill-rule="evenodd">
        <g id="Emblem" transform="translate(129.000000, 224.000000)">
            <g id="Bottom" transform="translate(289.073001, 422.582353)" fill="url(#linearGradient-1)">
                <path d="M122.102427,15.6150621 C97.7029816,25.689776 78.1700236,33.9171064 63.5035524,40.2970532 C54.4715487,44.2259944 38.8401772,51.1278993 16.609438,61.0027678 L16.6094384,61.0027687 C2.4366154,67.2983202 -3.94917484,83.8912161 2.34637665,98.0640391 C4.76473169,103.508347 8.85190628,108.042459 14.0169599,111.010816 C33.9259212,122.4525 47.2241033,130.480276 53.9115062,135.094144 C61.8445811,140.567444 75.2183806,151.408723 94.0329046,167.617981 L94.0329056,167.61798 C105.782073,177.740229 123.51236,176.421351 133.634609,164.672183 C134.643569,163.501056 135.554101,162.248613 136.356922,160.927621 C143.372997,149.383105 149.691818,139.57738 155.313383,131.510448 C163.989106,119.060807 179.323147,98.8147833 201.315508,70.7723769 L201.315506,70.7723757 C206.84581,63.7206987 207.530927,54.0142144 203.045983,46.2556267 L179.601549,5.6986674 C176.877837,0.986867655 171.204961,-1.14466829 166.052397,0.607686114 L123.777976,14.9849483 C123.212905,15.1771254 122.654105,15.3872701 122.102427,15.6150621 Z" id="Path-2"></path>
                <path d="M353.828962,15.6150621 C329.429517,25.689776 309.896559,33.9171064 295.230088,40.2970532 C286.198084,44.2259944 270.566713,51.1278993 248.335973,61.0027678 L248.335974,61.0027687 C234.163151,67.2983202 227.77736,83.8912161 234.072912,98.0640391 C236.491267,103.508347 240.578442,108.042459 245.743495,111.010816 C265.652457,122.4525 278.950639,130.480276 285.638042,135.094144 C293.571116,140.567444 306.944916,151.408723 325.75944,167.617981 L325.759441,167.61798 C337.508609,177.740229 355.238895,176.421351 365.361144,164.672183 C366.370105,163.501056 367.280636,162.248613 368.083457,160.927621 C375.099532,149.383105 381.418353,139.57738 387.039918,131.510448 C395.715641,119.060807 411.049683,98.8147833 433.042043,70.7723769 L433.042041,70.7723757 C438.572345,63.7206987 439.257462,54.0142144 434.772518,46.2556267 L411.328084,5.6986674 C408.604372,0.986867655 402.931496,-1.14466829 397.778932,0.607686114 L355.504512,14.9849483 C354.93944,15.1771254 354.38064,15.3872701 353.828962,15.6150621 Z" id="Path-2" transform="translate(334.716107, 87.208824) scale(-1, 1) translate(-334.716107, -87.208824) "></path>
            </g>
            <g id="TopWings" fill="url(#linearGradient-2)">
                <path d="M523.010328,377.750602 C624.204638,274.211531 707.31436,197.019637 772.339495,146.17492 C838.437376,94.4913967 914.584727,46.2172536 1000.78155,1.35249024 L1000.78155,1.35248937 C1003.64745,-0.139189625 1007.17997,0.974837779 1008.67165,3.84073922 C1009.38064,5.20290043 1009.5256,6.7892197 1009.07524,8.25732388 C989.791525,71.1189724 973.805592,122.711807 961.117438,163.035828 C947.852481,205.192975 917.160364,252.717636 869.041086,305.609809 L869.041085,305.609808 C866.773065,308.102791 864.214026,310.314548 861.418872,312.197628 C821.11296,339.351499 777.886909,356.037394 731.740717,362.255313 C688.35457,368.101334 621.520477,378.524996 531.238439,393.526299 L531.238439,393.526304 C526.138969,394.373634 521.318134,390.926593 520.470804,385.827123 C519.981786,382.884076 520.925044,379.884204 523.010328,377.750602 Z" id="Path"></path>
                <path d="M2.65728336,378.228935 C103.851593,274.689864 186.961316,197.49797 251.986451,146.653252 C318.084331,94.9697295 394.231683,46.6955864 480.428506,1.8308231 L480.428505,1.83082223 C483.294407,0.339143238 486.826923,1.45317064 488.318602,4.31907208 C489.027597,5.68123329 489.172556,7.26755256 488.722194,8.73565674 C469.438481,71.5973053 453.452547,123.19014 440.764393,163.514161 C427.499436,205.671308 396.807319,253.195968 348.688041,306.088142 L348.68804,306.088141 C346.42002,308.581124 343.860982,310.792881 341.065828,312.675961 C300.759915,339.829832 257.533864,356.515727 211.387673,362.733646 C168.001526,368.579666 101.167433,379.003329 10.8853938,394.004632 L10.8853946,394.004637 C5.78592393,394.851967 0.965089253,391.404926 0.117758939,386.305456 C-0.371259023,383.362409 0.571999769,380.362537 2.65728336,378.228935 Z" id="Path" transform="translate(244.488895, 197.650666) scale(-1, 1) translate(-244.488895, -197.650666) "></path>
            </g>
            <ellipse id="Glow" fill="url(#linearGradient-3)" cx="507.92584" cy="394.488235" rx="160.336037" ry="160.370588"></ellipse>
        </g>
        <g id="Text-Gradient" opacity="0.884881882" transform="translate(375.000000, 821.000000)" fill="#000000" font-family="Souvenir-Demi, ITC Souvenir" font-size="232.83" font-weight="500">
            <text id="Navi">
                <tspan x="0" y="234">Navi</tspan>
            </text>
        </g>
    </g>
</svg>