<?xml version="1.0" encoding="UTF-8"?>
<svg width="1268px" height="1268px" viewBox="0 0 1268 1268" version="1.1" xmlns="http://www.w3.org/2000/svg" xmlns:xlink="http://www.w3.org/1999/xlink">
    <!-- Generator: Sketch 52.5 (67469) - http://www.bohemiancoding.com/sketch -->
    <title>text-gradient</title>
    <desc>Created with Sketch.</desc>
    <defs>
        <linearGradient x1="82.7197093%" y1="28.4492658%" x2="29.8365329%" y2="86.0615643%" id="linearGradient-1">
            <stop stop-color="#FAD961" offset="0%"></stop>
            <stop stop-color="#C9F0FF" offset="100%"></stop>
        </linearGradient>
        <linearGradient x1="21.5032765%" y1="89.7684108%" x2="61.9508946%" y2="50%" id="linearGradient-2">
            <stop stop-color="#FAD961" offset="0%"></stop>
            <stop stop-color="#C9F0FF" offset="100%"></stop>
        </linearGradient>
        <linearGradient x1="50%" y1="-25.9822651%" x2="50%" y2="112.508554%" id="linearGradient-3">
            <stop stop-color="#F0FF00" offset="0%"></stop>
            <stop stop-color="#58CFFB" offset="100%"></stop>
        </linearGradient>
        <linearGradient x1="42.3631909%" y1="93.886779%" x2="42.3631909%" y2="7.83791173%" id="linearGradient-4">
            <stop stop-color="#000000" stop-opacity="0.856374547" offset="0%"></stop>
            <stop stop-color="#0D25B9" offset="66.9007406%"></stop>
            <stop stop-color="#6AE1DC" offset="100%"></stop>
        </linearGradient>
    </defs>
    <g id="text-gradient" stroke="none" stroke-width="1" fill="none" fill-rule="evenodd">
        <g id="Emblem" transform="translate(129.000000, 224.000000)">
            <g id="Bottom" transform="translate(289.073001, 422.582353)" fill="url(#linearGradient-1)">
                <path d="M122.102427,15.6150621 C97.7029816,25.689776 78.1700236,33.9171064 63.5035524,40.2970532 C54.4715487,44.2259944 38.8401772,51.1278993 16.609438,61.0027678 L16.6094384,61.0027687 C2.4366154,67.2983202 -3.94917484,83.8912161 2.34637665,98.0640391 C4.76473169,103.508347 8.85190628,108.042459 14.0169599,111.010816 C33.9259212,122.4525 47.2241033,130.480276 53.9115062,135.094144 C61.8445811,140.567444 75.2183806,151.408723 94.0329046,167.617981 L94.0329056,167.61798 C105.782073,177.740229 123.51236,176.421351 133.634609,164.672183 C134.643569,163.501056 135.554101,162.248613 136.356922,160.927621 C143.372997,149.383105 149.691818,139.57738 155.313383,131.510448 C163.989106,119.060807 179.323147,98.8147833 201.315508,70.7723769 L201.315506,70.7723757 C206.84581,63.7206987 207.530927,54.0142144 203.045983,46.2556267 L179.601549,5.6986674 C176.877837,0.986867655 171.204961,-1.14466829 166.052397,0.607686114 L123.777976,14.9849483 C123.212905,15.1771254 122.654105,15.3872701 122.102427,15.6150621 Z" id="Path-2"></path>
                <path d="M353.828962,15.6150621 C329.429517,25.689776 309.896559,33.9171064 295.230088,40.2970532 C286.198084,44.2259944 270.566713,51.1278993 248.335973,61.0027678 L248.335974,61.0027687 C234.163151,67.2983202 227.77736,83.8912161 234.072912,98.0640391 C236.491267,103.508347 240.578442,108.042459 245.743495,111.010816 C265.652457,122.4525 278.950639,130.480276 285.638042,135.094144 C293.571116,140.567444 306.944916,151.408723 325.75944,167.617981 L325.759441,167.61798 C337.508609,177.740229 355.238895,176.421351 365.361144,164.672183 C366.370105,163.501056 367.280636,162.248613 368.083457,160.927621 C375.099532,149.383105 381.418353,139.57738 387.039918,131.510448 C395.715641,119.060807 411.049683,98.8147833 433.042043,70.7723769 L433.042041,70.7723757 C438.572345,63.7206987 439.257462,54.0142144 434.772518,46.2556267 L411.328084,5.6986674 C408.604372,0.986867655 402.931496,-1.14466829 397.778932,0.607686114 L355.504512,14.9849483 C354.93944,15.1771254 354.38064,15.3872701 353.828962,15.6150621 Z" id="Path-2" transform="translate(334.716107, 87.208824) scale(-1, 1) translate(-334.716107, -87.208824) "></path>
            </g>
            <g id="TopWings" fill="url(#linearGradient-2)">
                <path d="M523.010328,377.750602 C624.204638,274.211531 707.31436,197.019637 772.339495,146.17492 C838.437376,94.4913967 914.584727,46.2172536 1000.78155,1.35249024 L1000.78155,1.35248937 C1003.64745,-0.139189625 1007.17997,0.974837779 1008.67165,3.84073922 C1009.38064,5.20290043 1009.5256,6.7892197 1009.07524,8.25732388 C989.791525,71.1189724 973.805592,122.711807 961.117438,163.035828 C947.852481,205.192975 917.160364,252.717636 869.041086,305.609809 L869.041085,305.609808 C866.773065,308.102791 864.214026,310.314548 861.418872,312.197628 C821.11296,339.351499 777.886909,356.037394 731.740717,362.255313 C688.35457,368.101334 621.520477,378.524996 531.238439,393.526299 L531.238439,393.526304 C526.138969,394.373634 521.318134,390.926593 520.470804,385.827123 C519.981786,382.884076 520.925044,379.884204 523.010328,377.750602 Z" id="Path"></path>
                <path d="M2.65728336,378.228935 C103.851593,274.689864 186.961316,197.49797 251.986451,146.653252 C318.084331,94.9697295 394.231683,46.6955864 480.428506,1.8308231 L480.428505,1.83082223 C483.294407,0.339143238 486.826923,1.45317064 488.318602,4.31907208 C489.027597,5.68123329 489.172556,7.26755256 488.722194,8.73565674 C469.438481,71.5973053 453.452547,123.19014 440.764393,163.514161 C427.499436,205.671308 396.807319,253.195968 348.688041,306.088142 L348.68804,306.088141 C346.42002,308.581124 343.860982,310.792881 341.065828,312.675961 C300.759915,339.829832 257.533864,356.515727 211.387673,362.733646 C168.001526,368.579666 101.167433,379.003329 10.8853938,394.004632 L10.8853946,394.004637 C5.78592393,394.851967 0.965089253,391.404926 0.117758939,386.305456 C-0.371259023,383.362409 0.571999769,380.362537 2.65728336,378.228935 Z" id="Path" transform="translate(244.488895, 197.650666) scale(-1, 1) translate(-244.488895, -197.650666) "></path>
            </g>
            <ellipse id="Glow" fill="url(#linearGradient-3)" cx="507.92584" cy="394.488235" rx="160.336037" ry="160.370588"></ellipse>
        </g>
        <g id="Text-Gradient" transform="translate(380.000000, 821.000000)">
            <text id="Navi" opacity="0.16578311" font-family="Souvenir-Demi, ITC Souvenir" font-size="232.83" font-weight="500" fill="#000000">
                <tspan x="0" y="234">Navi</tspan>
            </text>
            <path d="M139.95423,163.516196 L139.95423,86.449466 C139.7214,83.655506 139.25574,80.861546 138.55725,78.766076 C136.92744,74.575136 133.43499,73.643816 129.70971,72.246836 C125.7516,70.617026 123.88896,68.987216 123.88896,64.563446 C123.88896,56.647226 134.36631,57.345716 139.7214,57.345716 L159.97761,57.345716 C165.3327,57.345716 175.81005,56.647226 175.81005,64.563446 C175.81005,68.987216 173.94741,70.617026 169.9893,72.246836 C166.26402,73.643816 162.77157,74.575136 161.14176,78.766076 C160.44327,80.861546 159.97761,83.655506 159.74478,86.449466 L159.74478,212.876156 C159.74478,225.681806 159.04629,229.407086 144.84366,229.407086 C139.7214,229.407086 136.46178,229.407086 132.96933,225.681806 C128.77839,221.490866 119.69802,207.055406 115.97274,201.467486 L43.09695,101.117756 L43.09695,198.673526 C43.32978,201.467486 43.79544,204.261446 44.49393,206.356916 C46.12374,210.547856 49.61619,211.479176 53.34147,212.876156 C57.29958,214.505966 59.16222,216.135776 59.16222,220.559546 C59.16222,228.475766 48.68487,227.777276 43.32978,227.777276 L23.07357,227.777276 C17.71848,227.777276 7.24113,228.475766 7.24113,220.559546 C7.24113,216.135776 9.10377,214.505966 13.06188,212.876156 C16.78716,211.479176 20.27961,210.547856 21.90942,206.356916 C22.60791,204.261446 23.07357,201.467486 23.3064,198.673526 L23.3064,95.529836 C23.07357,85.518146 24.70338,76.903436 13.52754,73.410986 C9.10377,72.014006 4.68,70.849856 4.68,65.261936 C4.68,57.578546 11.89773,57.345716 17.95131,57.345716 L49.84902,57.345716 C58.46373,57.345716 59.86071,57.112886 65.68146,63.399296 C79.65126,78.067586 96.41502,102.514736 108.52218,119.511326 L139.95423,163.516196 Z M296.88165,159.092426 L296.88165,195.879566 C296.88165,199.139186 296.64882,205.658426 298.0458,208.685216 C299.20995,211.013516 301.07259,212.177666 303.16806,213.108986 C306.42768,214.738796 308.98881,216.368606 308.98881,220.326716 C308.98881,227.777276 302.00391,227.777276 296.41599,227.777276 L273.13299,227.777276 C261.25866,227.777276 261.25866,223.819166 260.56017,213.341816 C252.64395,226.380296 238.67415,231.269726 224.47152,231.269726 C202.5855,231.269726 182.56212,219.162566 182.56212,195.181076 C182.56212,162.119216 224.47152,153.970166 250.08282,153.970166 L257.99904,153.970166 C257.99904,140.000366 251.24697,129.523016 236.34585,129.523016 C222.14322,129.523016 220.04775,144.424136 205.37946,144.424136 C198.62739,144.424136 190.944,141.397346 190.944,133.248296 C190.944,116.950196 227.73114,113.923406 239.13981,113.923406 C252.17829,113.923406 266.61375,116.018876 278.02242,122.538116 C292.45788,130.919996 296.88165,142.794326 296.88165,159.092426 Z M259.16319,168.638456 L254.97225,168.638456 C238.44132,168.638456 221.67756,176.787506 221.67756,195.413906 C221.67756,204.261446 226.79982,212.177666 236.34585,212.177666 C244.02924,212.177666 250.08282,207.288236 254.27376,201.001826 C259.39602,192.852776 259.16319,185.402216 259.16319,176.089016 L259.16319,168.638456 Z M385.35705,202.398806 L397.46421,174.692036 C400.95666,166.542986 406.77741,147.450926 406.77741,139.301876 C406.77741,128.591696 396.06723,130.454336 396.06723,122.305286 C396.06723,115.087556 404.21628,115.786046 408.87288,115.786046 L421.67853,115.786046 C426.56796,115.786046 436.34682,114.389066 436.34682,121.839626 C436.34682,124.866416 434.94984,126.961886 433.0872,128.824526 C427.73211,134.412446 427.96494,134.412446 425.86947,142.794326 L423.30834,152.573186 C418.18608,171.432416 410.73552,189.825986 401.65515,207.288236 C398.86119,212.876156 393.97176,222.189356 389.78082,226.613126 C386.05554,230.571236 381.16611,231.269726 375.81102,231.269726 C365.5665,231.269726 361.14273,229.407086 355.32198,220.792376 C338.09256,194.715416 329.47785,169.569776 321.3288,140.000366 C320.16465,135.576596 319.69899,133.015466 316.20654,130.221506 C313.64541,128.358866 311.08428,126.729056 311.08428,123.003776 C311.08428,115.553216 319.23333,115.786046 324.58842,115.786046 L354.85632,115.786046 C360.21141,115.786046 369.99027,115.320386 369.99027,122.770946 C369.99027,130.454336 360.44424,129.755846 360.44424,137.672066 C360.44424,152.340356 376.74234,189.127496 385.35705,202.398806 Z M470.80566,100.652096 C460.56114,100.652096 448.68681,94.598516 448.68681,83.189846 C448.68681,70.849856 460.09548,63.632126 471.27132,63.632126 C482.67999,63.632126 494.08866,69.685706 494.08866,82.258526 C494.08866,94.365686 481.28301,100.652096 470.80566,100.652096 Z M455.67171,198.207866 L455.67171,161.886386 C455.67171,156.764126 455.67171,149.546396 454.97322,144.424136 C454.0419,139.534706 452.17926,138.370556 448.22115,136.042256 C445.42719,134.412446 442.4004,133.248296 442.4004,129.523016 C442.4004,123.236606 452.17926,121.839626 456.60303,120.675476 C463.58793,118.347176 476.85924,113.923406 484.07697,113.923406 C495.01998,113.923406 493.623,129.755846 493.623,136.740746 L493.623,198.207866 C493.623,201.234656 493.39017,207.521066 494.55432,210.547856 C495.48564,212.177666 497.34828,213.341816 498.97809,214.505966 C501.30639,215.902946 503.16903,217.532756 503.16903,220.559546 C503.16903,225.914636 498.97809,227.777276 494.32149,227.777276 L454.97322,227.777276 C450.31662,227.777276 446.12568,225.914636 446.12568,220.559546 C446.12568,217.532756 447.98832,215.902946 450.31662,214.505966 C451.94643,213.341816 453.80907,212.177666 454.74039,210.547856 C455.90454,207.521066 455.67171,201.234656 455.67171,198.207866 Z" id="Navi" fill="url(#linearGradient-4)"></path>
        </g>
    </g>
</svg>