<?xml version="1.0" encoding="UTF-8"?>
<svg width="773px" height="455px" viewBox="0 0 773 455" version="1.1" xmlns="http://www.w3.org/2000/svg" xmlns:xlink="http://www.w3.org/1999/xlink">
    <!-- Generator: Sketch 52.5 (67469) - http://www.bohemiancoding.com/sketch -->
    <title>fairy</title>
    <desc>Created with Sketch.</desc>
    <defs>
        <linearGradient x1="82.7197093%" y1="28.4492658%" x2="29.8365329%" y2="86.0615643%" id="linearGradient-1">
            <stop stop-color="#FAD961" offset="0%"></stop>
            <stop stop-color="#C9F0FF" offset="100%"></stop>
        </linearGradient>
        <linearGradient x1="21.5032765%" y1="89.7684108%" x2="61.9508946%" y2="50%" id="linearGradient-2">
            <stop stop-color="#FAD961" offset="0%"></stop>
            <stop stop-color="#C9F0FF" offset="100%"></stop>
        </linearGradient>
        <linearGradient x1="-1%" y1="0%" x2="100%" y2="100%" id="linearGradient-3">
            <stop stop-color="#5EFCE8" offset="0%"></stop>
            <stop stop-color="#736EFE" offset="100%"></stop>
        </linearGradient>
    </defs>
    <g id="fairy" stroke="none" stroke-width="1" fill="none" fill-rule="evenodd">
        <g id="Emblem" transform="translate(27.000000, 24.000000)">
            <g id="Bottom" transform="translate(197.000000, 288.000000)" fill="url(#linearGradient-1)">
                <path d="M83.1459814,10.7622041 C66.6011644,17.5864709 53.3457534,23.1635653 43.3797484,27.4934871 C39.6677902,29.1062184 34.324091,31.4531357 27.3486507,34.5342388 L27.34865,34.5342373 C13.1627439,40.8002561 6.74240671,57.3798171 13.0084255,71.5657232 C15.3606419,76.8910058 19.3098691,81.3535407 24.3096268,84.3358182 C30.0034087,87.7320702 34.1759832,90.3437099 36.8273503,92.1707374 C41.0968449,95.1127983 47.6732861,100.328172 56.5566739,107.816858 L56.5566734,107.816859 C68.4138133,117.812415 86.1289237,116.303303 96.1244798,104.446163 C96.937231,103.482045 97.6841157,102.464274 98.3600622,101.399762 C101.123655,97.0475272 103.702209,93.1561692 106.095726,89.7256876 C111.633793,81.7883121 121.1436,69.2060318 134.625145,51.9788468 L134.625145,51.9788465 C140.145594,44.9246258 140.822727,35.2226573 136.335702,27.4699808 L124.171921,6.45341403 C121.44765,1.74642157 115.779382,-0.382872466 110.629839,1.36630865 L84.8217945,10.1327046 C84.2566418,10.324674 83.6977535,10.5346138 83.1459814,10.7622041 Z" id="Path-2"></path>
                <path d="M241.440099,10.7622041 C224.895282,17.5864709 211.639871,23.1635653 201.673866,27.4934871 C197.961908,29.1062184 192.618209,31.4531357 185.642768,34.5342388 L185.642768,34.5342373 C171.456862,40.8002561 165.036524,57.3798171 171.302543,71.5657232 C173.65476,76.8910058 177.603987,81.3535407 182.603744,84.3358182 C188.297526,87.7320702 192.470101,90.3437099 195.121468,92.1707374 C199.390963,95.1127983 205.967404,100.328172 214.850792,107.816858 L214.850791,107.816859 C226.707931,117.812415 244.423041,116.303303 254.418597,104.446163 C255.231349,103.482045 255.978233,102.464274 256.65418,101.399762 C259.417772,97.0475272 261.996327,93.1561692 264.389843,89.7256876 C269.927911,81.7883121 279.437717,69.2060318 292.919263,51.9788468 L292.919262,51.9788465 C298.439712,44.9246258 299.116845,35.2226573 294.62982,27.4699808 L282.466039,6.45341403 C279.741767,1.74642157 274.0735,-0.382872466 268.923956,1.36630865 L243.115912,10.1327046 C242.550759,10.324674 241.991871,10.5346138 241.440099,10.7622041 Z" id="Path-2" transform="translate(228.647059, 59.500000) scale(-1, 1) translate(-228.647059, -59.500000) "></path>
            </g>
            <g id="TopWings" fill="url(#linearGradient-2)">
                <path d="M457.850031,158.9052 C483.466651,135.362868 506.474368,115.619838 526.87318,99.6761116 C570.948799,65.2265767 621.574806,32.9984055 678.751203,2.9915979 L678.751205,2.99160256 C681.612027,1.49021163 685.148299,2.59224794 686.64969,5.45306955 C687.36675,6.81938983 687.514946,8.41368176 687.062006,9.88875856 C674.490175,50.8310847 664.020633,84.5926651 655.653381,111.1735 C646.71367,139.572903 626.171127,171.544465 594.025752,207.088187 L594.025753,207.088188 C591.656525,209.707885 588.967184,212.019162 586.021056,213.967593 C558.987911,231.846045 530.040085,242.863679 499.177579,247.020495 C499.177579,247.020495 499.177579,247.020495 499.177579,247.020495 L499.177579,247.020495 C471.256476,250.781139 445.573347,231.195217 441.812703,203.274115 C439.58743,186.752451 445.575507,170.18586 457.85006,158.905231 Z" id="Path"></path>
                <path d="M102.876519,159.231373 C128.493139,135.689041 151.500855,115.946012 171.899668,100.002285 C215.975286,65.55275 266.601293,33.3245788 323.77769,3.31777123 L323.777693,3.31777588 C326.638514,1.81638496 330.174786,2.91842127 331.676177,5.77924288 C332.393237,7.14556315 332.541434,8.73985509 332.088494,10.2149319 C319.516662,51.157258 309.04712,84.9188384 300.679868,111.499673 C291.740158,139.899076 271.197615,171.870638 239.052239,207.414361 L239.05224,207.414361 C236.683013,210.034059 233.993671,212.345335 231.047543,214.293766 C204.014398,232.172218 175.066573,243.189853 144.204066,247.346669 C144.204066,247.346669 144.204066,247.346669 144.204066,247.346669 L144.204066,247.346669 C116.282964,251.107312 90.5998341,231.521391 86.8391906,203.600288 C84.6139171,187.078624 90.6019948,170.512033 102.876547,159.231404 Z" id="Path" transform="translate(166.784998, 134.777224) scale(-1, 1) translate(-166.784998, -134.777224) "></path>
            </g>
            <circle id="Glow" fill="url(#linearGradient-3)" cx="346.5" cy="268.5" r="109.5"></circle>
        </g>
    </g>
</svg>