<?xml version="1.0" encoding="UTF-8"?>
<svg width="773px" height="455px" viewBox="0 0 773 455" version="1.1" xmlns="http://www.w3.org/2000/svg" xmlns:xlink="http://www.w3.org/1999/xlink">
    <!-- Generator: Sketch 52.5 (67469) - http://www.bohemiancoding.com/sketch -->
    <title>fairy-logo</title>
    <desc>Created with Sketch.</desc>
    <g id="fairy-logo" stroke="none" stroke-width="1" fill="none" fill-rule="evenodd">
        <g id="Emblem" transform="translate(28.000000, 26.000000)" fill="#000000">
            <path d="M303.72951,373.982589 C303.151126,374.793728 302.606531,375.565351 302.095726,376.297458 C299.702209,379.72794 297.123655,383.619298 294.360062,387.971532 C293.684116,389.036044 292.937231,390.053815 292.12448,391.017934 C282.128924,402.875074 264.413813,404.384186 252.556674,394.388629 C243.673286,386.899942 237.096845,381.684569 232.82735,378.742508 C230.175983,376.91548 226.003409,374.303841 220.309627,370.907589 C215.309869,367.925311 211.360642,363.462776 209.008426,358.137494 C202.742407,343.951587 209.162744,327.372026 223.348651,321.106009 C230.324091,318.024906 235.66779,315.677989 239.379748,314.065257 C239.836873,313.866651 240.300919,313.66542 240.771885,313.461566 C252.951283,341.005557 275.627998,362.870072 303.72951,373.982589 Z M451.066685,313.824935 C451.252321,313.905465 451.436844,313.985572 451.620252,314.065257 C455.33221,315.677989 460.675909,318.024906 467.651349,321.106009 C481.837256,327.372026 488.257593,343.951587 481.991574,358.137494 C479.639358,363.462776 475.690131,367.925311 470.690373,370.907589 C464.996591,374.303841 460.824017,376.91548 458.17265,378.742508 C453.903155,381.684569 447.326714,386.899942 438.443326,394.388629 C426.586187,404.384186 408.871076,402.875074 398.87552,391.017934 C398.062769,390.053815 397.315884,389.036044 396.639938,387.971532 C393.876345,383.619298 391.297791,379.72794 388.904274,376.297458 C388.458091,375.657971 387.986128,374.988333 387.488383,374.288546 C415.826972,363.322576 438.735348,341.452431 451.066685,313.824935 Z M455.28552,231.099674 C451.847168,220.626585 446.945308,210.817116 440.821805,201.913132 C440.818757,201.890722 440.815723,201.868306 440.812703,201.845885 C438.58743,185.324221 444.575507,168.75763 456.85006,157.477001 L456.850031,157.47697 C482.466651,133.934638 505.474368,114.191609 525.87318,98.247882 C569.948799,63.7983471 620.574806,31.5701758 677.751203,1.56336826 C680.612027,0.0619819946 684.148299,1.16401831 685.64969,4.02483991 C686.36675,5.39116019 686.514946,6.98545212 686.062006,8.46052892 C673.490175,49.402855 663.020633,83.1644355 654.653381,109.74527 C645.71367,138.144673 625.171127,170.116235 593.025752,205.659958 C590.656525,208.279656 587.967184,210.590932 585.021056,212.539363 C557.987911,230.417815 529.040085,241.43545 498.177579,245.592266 C481.778922,247.800971 466.152246,241.956368 455.28552,231.099674 Z M229.693478,157.803143 L229.693449,157.803174 C241.968002,169.083804 247.95608,185.650394 245.730806,202.172059 C241.970163,230.093161 216.287033,249.679083 188.365931,245.918439 C157.503424,241.761623 128.555598,230.743989 101.522454,212.865536 C98.5763256,210.917106 95.8869839,208.605829 93.5177573,205.986131 C61.3723819,170.442409 40.8298391,138.470846 31.8901288,110.071443 C23.5228767,83.4906088 13.0533348,49.7290284 0.481503107,8.78670225 C0.028563106,7.31162545 0.176759378,5.71733352 0.893819421,4.35101324 C2.39521034,1.49019163 5.9314823,0.388155322 8.79230635,1.88954159 C65.9687033,31.8963491 116.594711,64.1245204 160.670329,98.5740553 C181.069142,114.517782 204.076858,134.260811 229.693478,157.803143 Z" id="Combined-Shape"></path>
            <circle id="Glow" cx="345.5" cy="266.5" r="109.5"></circle>
        </g>
    </g>
</svg>